<svg version="1.1" xmlns="http://www.w3.org/2000/svg" viewBox="-244.7 -1085.7 9822.4 5152.999999999999"><desc>Created with Snap</desc><defs></defs><g><rect x="-244.7" y="-1085.7" width="9822.4" height="5152.999999999999" fill="#6daedb" style=""></rect><g transform="matrix(22.0917,0,0,22.0917,3518.9348,1620.4097)"><path d="M96.515,26.779L59.594,1.78c-0.96-0.65-2.154-0.855-3.274-0.566L8.63,13.521c-1.784,0.46-3.03,2.069-3.03,3.912v44.421  c0,1.05,0.408,2.058,1.139,2.812l29.999,30.96c0.774,0.799,1.827,1.229,2.902,1.229c0.442,0,0.887-0.072,1.319-0.222l52.304-18.073  c1.556-0.538,2.63-1.966,2.715-3.609l2.308-44.617C98.357,28.92,97.687,27.572,96.515,26.779z M56.573,9.493l29.128,19.722  l-17.566,5.364L40.355,13.678L56.573,9.493z M41.342,42.761L16.096,19.938l17.589-4.539l28.078,21.125L41.342,42.761z   M13.679,60.218V25.013l24.42,22.076v38.33L13.679,60.218z M43.485,87.21V47.738l46.543-14.213l-1.979,38.287L43.485,87.21z" fill="#173753" style=""></path><desc>Created with Snap</desc><defs></defs></g><g><g transform="matrix(0.5,0,0,-0.5,0,0)"><path d="M849 595L848 869Q848 925 830 945Q797 982 708 982L550 982Q426 982 414 912Q411 892 411 869L410 569Q410 181 450 83Q466 45 500 0L125 0Q157 76 162 127Q168 178 174 253Q185 410 185 612Q185 814 184 890Q183 967 182 1040Q175 1343 163 1403Q151 1464 143 1485L125 1530L500 1530Q428 1450 420 1314Q417 1273 417 1228Q417 1183 425 1157Q434 1132 454 1120Q481 1102 581 1102L676 1102Q778 1102 802 1117Q842 1143 842 1230Q842 1443 758 1530L1133 1530Q1103 1464 1096 1408Q1090 1352 1087 1300Q1084 1249 1081 1181Q1078 1113 1076 1040Q1073 870 1073 732Q1073 171 1115 45Q1122 24 1133 0L758 0Q808 67 819 115Q830 164 836 230Q849 357 849 595ZM2058 340Q2094 316 2094 256Q2094 197 2078 152Q2062 107 2022 68Q1932 -20 1748 -20Q1534 -20 1422 138Q1323 279 1323 519Q1323 761 1457 899Q1584 1030 1801 1030Q1952 1030 2037 942Q2104 872 2104 780Q2104 689 2068 615Q2033 542 1964 489Q1822 379 1567 373Q1588 172 1693 104Q1731 80 1794 80Q1857 80 1928 146Q1999 212 2058 340ZM1561 499L1561 468Q1877 489 1877 774Q1877 881 1813 918Q1791 930 1755 930Q1719 930 1682 908Q1646 886 1619 836Q1561 727 1561 499ZM3058 534L3055 342Q3055 163 3088 98Q3108 59 3135 38L3182 0L2892 0L2861 116Q2748 -20 2539 -20Q2420 -20 2347 60Q2283 132 2283 230Q2283 328 2329 401Q2376 474 2452 522Q2602 615 2829 619L2829 630Q2829 873 2754 915Q2727 930 2684 930Q2642 930 2600 902Q2558 874 2524 830Q2456 741 2427 620Q2338 673 2338 823Q2338 884 2354 960Q2392 960 2426 971L2503 995Q2616 1030 2724 1030Q2832 1030 2896 998Q2961 966 2997 903Q3058 796 3058 534ZM2499 210Q2499 148 2527 114Q2556 80 2599 80Q2642 80 2682 102Q2722 125 2754 164Q2829 253 2829 373L2829 521Q2689 508 2598 428Q2499 342 2499 210ZM3922 0L3908 79Q3799 -20 3631 -20Q3477 -20 3388 69Q3296 161 3296 328Q3296 496 3345 621Q3394 747 3474 832Q3632 1000 3862 1009Q3854 1317 3841 1362Q3829 1408 3816 1434Q3804 1461 3788 1483L3754 1530L4119 1530Q4091 1429 4086 1334Q4082 1239 4080 1167Q4078 1095 4077 1016Q4074 884 4074 753Q4074 623 4074 556Q4075 489 4077 429Q4082 204 4094 161Q4106 119 4118 93Q4131 68 4147 46L4181 0L3922 0ZM3863 367Q3868 521 3868 655Q3868 790 3865 912Q3720 890 3633 741Q3546 593 3546 368Q3546 235 3566 182Q3587 129 3615 104Q3644 80 3684 80Q3725 80 3755 96Q3786 113 3809 145Q3859 213 3863 367ZM4891 39Q4784 -20 4652 -20Q4498 -20 4409 69Q4317 161 4317 328Q4317 655 4503 842Q4672 1010 4906 1010L5164 1010Q5130 935 5121 882Q5113 829 5109 783Q5106 737 5103 680Q5100 623 5097 565Q5092 437 5092 348Q5092 259 5093 170Q5095 82 5097 8Q5101 -141 5108 -199Q5115 -257 5124 -289Q5134 -321 5145 -346Q5163 -385 5204 -440L4849 -440Q4880 -347 4885 -258Q4894 -119 4894 -83Q4894 -9 4891 39ZM4884 334L4887 638Q4887 821 4874 914Q4733 884 4650 736Q4567 589 4567 368Q4567 235 4587 182Q4608 129 4636 104Q4665 80 4705 80Q4746 80 4777 96Q4808 112 4832 144Q4884 213 4884 334ZM6188 964L6188 916L6173 469Q6173 196 6221 94Q6238 57 6281 0L6003 0Q5980 68 5973 172Q5857 -20 5674 -20Q5548 -20 5481 74Q5415 165 5415 324L5415 459Q5415 504 5415 551L5413 642Q5412 729 5407 777Q5403 826 5397 858Q5392 891 5384 916Q5376 942 5366 964L5344 1010L5633 1010Q5634 994 5634 980L5634 951Q5634 951 5617 449Q5617 302 5636 249Q5655 196 5681 173Q5708 150 5752 150Q5871 150 5945 280Q5965 317 5978 355Q5980 411 5980 482Q5980 847 5926 964L5904 1010L6189 1010Q6188 985 6188 964ZM7227 534L7224 342Q7224 163 7257 98Q7277 59 7304 38L7351 0L7061 0L7030 116Q6917 -20 6708 -20Q6589 -20 6516 60Q6452 132 6452 230Q6452 328 6498 401Q6545 474 6621 522Q6771 615 6998 619L6998 630Q6998 873 6923 915Q6896 930 6853 930Q6811 930 6769 902Q6727 874 6693 830Q6625 741 6596 620Q6507 673 6507 823Q6507 884 6523 960Q6561 960 6595 971L6672 995Q6785 1030 6893 1030Q7001 1030 7065 998Q7130 966 7166 903Q7227 796 7227 534ZM6668 210Q6668 148 6696 114Q6725 80 6768 80Q6811 80 6851 102Q6891 125 6923 164Q6998 253 6998 373L6998 521Q6858 508 6767 428Q6668 342 6668 210ZM7819 0L7524 0Q7570 158 7570 543Q7570 817 7526 917Q7508 958 7462 1010L7817 1010Q7799 947 7788 837Q7882 955 8050 1004Q8122 1025 8155 1070Q8188 991 8188 934Q8188 877 8182 828Q8176 780 8164 734Q8138 635 8095 580Q8058 775 7980 808Q7890 847 7804 702Q7786 672 7774 638Q7773 615 7773 591Q7773 567 7773 543Q7773 158 7819 0ZM8616 1410Q8595 1333 8595 1225Q8595 1118 8599 1088Q8604 1058 8614 1040Q8633 1010 8688 1010L8956 1010Q8956 954 8929 924Q8880 870 8809 870Q8774 870 8747 880Q8698 900 8671 900Q8644 900 8627 889Q8610 879 8600 859Q8582 823 8582 702Q8582 581 8589 454Q8597 327 8627 241Q8657 156 8718 113Q8779 70 8886 70Q8886 39 8844 -4Q8833 -16 8825 -20Q8648 -20 8560 22Q8459 72 8416 200Q8373 330 8373 585Q8373 808 8361 848Q8349 889 8339 902Q8327 917 8281 939Q8343 986 8404 1114L8454 1219Q8507 1339 8544 1374Q8582 1410 8616 1410ZM9761 340Q9797 316 9797 256Q9797 197 9781 152Q9765 107 9725 68Q9635 -20 9451 -20Q9237 -20 9125 138Q9026 279 9026 519Q9026 761 9160 899Q9287 1030 9504 1030Q9655 1030 9740 942Q9807 872 9807 780Q9807 689 9771 615Q9736 542 9667 489Q9525 379 9270 373Q9291 172 9396 104Q9434 80 9497 80Q9560 80 9631 146Q9702 212 9761 340ZM9264 499L9264 468Q9580 489 9580 774Q9580 881 9516 918Q9494 930 9458 930Q9422 930 9385 908Q9349 886 9322 836Q9264 727 9264 499ZM10336 0L10041 0Q10087 158 10087 543Q10087 817 10043 917Q10025 958 9979 1010L10334 1010Q10316 947 10305 837Q10399 955 10567 1004Q10639 1025 10672 1070Q10705 991 10705 934Q10705 877 10699 828Q10693 780 10681 734Q10655 635 10612 580Q10575 775 10497 808Q10407 847 10321 702Q10303 672 10291 638Q10290 615 10290 591Q10290 567 10290 543Q10290 158 10336 0ZM11467 1069Q11494 1009 11494 948Q11494 887 11488 847Q11483 807 11472 770Q11447 686 11401 641Q11370 796 11333 842Q11297 888 11260 904Q11224 920 11183 920Q11142 920 11116 912Q11090 904 11071 889Q11028 856 11028 814Q11028 772 11049 741Q11070 711 11104 684Q11139 658 11183 633L11273 582Q11389 517 11432 474Q11517 389 11517 295Q11517 172 11433 88Q11327 -20 11115 -20Q10922 -20 10825 70Q10797 96 10785 122Q10793 197 10852 263Q10909 327 10963 337Q10959 324 10959 298Q10959 272 10974 233Q10989 195 11017 162Q11080 86 11159 86Q11238 86 11275 122Q11312 158 11312 204Q11312 250 11291 281Q11270 312 11235 339Q11201 366 11157 391L11067 442Q10952 510 10909 558Q10823 654 10823 767Q10823 886 10923 960Q11018 1030 11160 1030L11336 1018Q11400 1018 11425 1033Q11450 1049 11467 1069ZM12844 614L12657 1183Q12653 1037 12653 881Q12653 668 12660 422Q12667 176 12670 142Q12674 109 12680 84Q12691 38 12716 0L12437 0Q12475 54 12482 116Q12490 178 12494 236Q12502 354 12502 553Q12502 794 12494 993L12483 1268Q12477 1420 12434 1484Q12418 1508 12393 1530L12784 1530Q12823 1359 12881 1167L13063 586L13342 1530L13732 1530Q13683 1487 13668 1442Q13646 1373 13643 1282L13636 1105Q13623 794 13623 553Q13623 149 13660 40Q13667 20 13678 0L13363 0Q13390 53 13393 114Q13397 176 13400 284Q13412 639 13412 801Q13412 1068 13407 1198L13039 0L12844 614ZM14347 930Q14257 930 14217 840Q14178 750 14178 537Q14178 80 14347 80Q14437 80 14476 202Q14516 324 14516 537Q14516 750 14476 840Q14437 930 14347 930ZM13926 575Q13926 1030 14347 1030Q14768 1030 14768 575Q14768 299 14652 138Q14539 -20 14347 -20Q14155 -20 14042 138Q13926 299 13926 575ZM14878 1010L15247 1010Q15229 966 15229 913Q15229 861 15237 820Q15245 780 15259 726L15367 342L15405 219Q15464 396 15483 458L15519 580Q15578 781 15578 829Q15578 877 15573 899Q15569 922 15561 940Q15551 967 15522 1010L15886 1010Q15812 908 15787 857L15750 781Q15741 763 15725 729Q15529 282 15529 130Q15529 61 15555 0L15195 0Q15219 38 15223 71Q15228 105 15228 140Q15228 176 15210 243Q15192 310 15163 395Q15134 480 15096 574Q15059 669 15020 755Q14932 948 14878 1010ZM16354 1279Q16334 1246 16305 1223Q16276 1201 16239 1201Q16202 1201 16173 1223Q16144 1246 16124 1279Q16083 1347 16083 1423Q16083 1515 16167 1546Q16197 1557 16240 1557Q16359 1557 16388 1473Q16397 1449 16397 1419Q16397 1390 16386 1351Q16375 1312 16354 1279ZM16378 0L16083 0Q16129 158 16129 543Q16129 814 16081 916Q16069 942 16054 964L16021 1010L16376 1010Q16332 845 16332 501Q16332 158 16378 0ZM16930 0L16643 0Q16689 158 16689 543Q16689 817 16641 917Q16629 942 16614 964L16581 1010L16928 1010Q16913 960 16908 916L16900 844Q17021 1030 17208 1030Q17329 1030 17397 936Q17463 844 17463 687L17463 580Q17463 305 17468 244Q17473 183 17476 151Q17479 119 17483 94Q17490 47 17504 0L17211 0Q17257 158 17257 543Q17257 697 17237 754Q17218 811 17191 835Q17164 860 17120 860Q17039 860 16973 796Q16916 741 16886 656Q16884 629 16884 600L16884 543Q16884 158 16930 0ZM18269 24Q18172 -20 18078 -20Q17984 -20 17922 4Q17860 28 17816 74Q17724 170 17724 339Q17724 665 17911 847Q18078 1010 18313 1010L18541 1010Q18513 913 18509 824Q18505 735 18503 678Q18502 622 18501 564Q18499 448 18499 327Q18499 206 18480 92Q18461 -21 18429 -106Q18398 -191 18357 -251Q18317 -311 18273 -352Q18201 -419 18106 -450Q18086 -442 18067 -421Q18049 -400 18045 -380Q18159 -334 18226 -151Q18252 -80 18269 24ZM18291 334L18294 634Q18294 815 18281 908Q18139 880 18057 740Q17974 597 17974 379Q17974 244 17994 188Q18015 132 18043 106Q18072 80 18112 80Q18153 80 18184 96Q18215 112 18239 144Q18291 213 18291 334Z" fill="#ffffff" style=""></path></g></g><g transform="matrix(1,0,0,1,3961.75,1332.2)"><g transform="matrix(0.5,0,0,-0.5,0,0)"><path d="M911 370Q938 331 938 276Q938 221 930 181Q923 141 910 105Q880 26 834 0L30 0Q109 49 133 85Q179 153 179 261Q178 527 178 742L178 1266Q178 1411 130 1479Q113 1504 88 1530L499 1530Q440 1445 432 1355Q430 1325 430 1289L430 373Q430 186 450 149Q470 113 498 106Q526 100 583 100Q640 100 691 120Q742 140 782 176Q850 238 911 370ZM1822 370Q1849 331 1849 276Q1849 221 1841 181Q1834 141 1821 105Q1791 26 1745 0L941 0Q1020 49 1044 85Q1090 153 1090 261Q1089 527 1089 742L1089 1266Q1089 1411 1041 1479Q1024 1504 999 1530L1410 1530Q1351 1445 1343 1355Q1341 1325 1341 1289L1341 373Q1341 186 1361 149Q1381 113 1409 106Q1437 100 1494 100Q1551 100 1602 120Q1653 140 1693 176Q1761 238 1822 370ZM2760 1600Q2789 1559 2789 1474Q2789 1390 2783 1337Q2778 1285 2767 1236Q2743 1126 2700 1070Q2663 1263 2604 1346Q2542 1430 2442 1430Q2343 1430 2287 1392Q2231 1354 2201 1292Q2151 1189 2151 988Q2151 788 2196 621Q2242 455 2326 335Q2503 80 2787 80Q2783 35 2740 2Q2727 -8 2712 -10Q2349 -10 2120 257Q1877 541 1877 1031Q1877 1287 2027 1416Q2160 1530 2391 1530L2558 1528Q2676 1528 2724 1562Q2744 1577 2760 1600Z" fill="#ffffff" style=""></path></g></g></g></svg>